<svg class="face" width="265" height="265" viewBox="0 0 265 265" fill="none" xmlns="http://www.w3.org/2000/svg">
    <path d="M145.455 143.755C145.455 150.935 139.635 156.755 132.455 156.755C125.275 156.755 119.455 150.935 119.455 143.755" stroke="white" stroke-width="2"/>
    <circle cx="86.9545" cy="121.654" r="13.0002" stroke="white" stroke-width="2"/>
    <circle cx="177.956" cy="121.654" r="13.0002" stroke="white" stroke-width="2"/>
    <path fill-rule="evenodd" clip-rule="evenodd" d="M66 1.06617e-07H67.4544V2H66C35.8301 2 20.7452 2 11.3726 11.3726C2 20.7452 2 35.8301 2 66V67.0008H1.06617e-07V66V65.8407C-1.49138e-05 50.8905 -2.63578e-05 39.4677 1.18941 30.6208C2.3908 21.685 4.83854 15.0782 9.95837 9.95837C15.0782 4.83854 21.685 2.3908 30.6208 1.18941C39.4677 -2.63578e-05 50.8905 -1.49138e-05 65.8407 1.06617e-07H66ZM1.06617e-07 197.003V198.003V198.163C-1.49138e-05 213.113 -2.63578e-05 224.536 1.18941 233.383C2.3908 242.318 4.83854 248.925 9.95837 254.045C15.0782 259.165 21.685 261.613 30.6208 262.814C39.4675 264.003 50.89 264.003 65.8398 264.003H65.8409H66H67.4544V262.003H66C35.8301 262.003 20.7452 262.003 11.3726 252.631C2 243.258 2 228.173 2 198.003V197.003H1.06617e-07ZM262.003 197.003V198.003C262.003 228.173 262.003 243.258 252.631 252.631C243.258 262.003 228.173 262.003 198.003 262.003H197.456V264.003H198.003H198.162H198.164C213.113 264.003 224.536 264.003 233.383 262.814C242.318 261.613 248.925 259.165 254.045 254.045C259.165 248.925 261.613 242.318 262.814 233.383C264.003 224.536 264.003 213.113 264.003 198.164V198.162V198.003V197.003H262.003ZM264.003 67.0008V66V65.8409V65.8398C264.003 50.89 264.003 39.4675 262.814 30.6208C261.613 21.685 259.165 15.0782 254.045 9.95837C248.925 4.83854 242.318 2.3908 233.383 1.18941C224.536 -2.63578e-05 213.113 -1.49138e-05 198.163 1.06617e-07H198.003H197.456V2H198.003C228.173 2 243.258 2 252.631 11.3726C262.003 20.7452 262.003 35.8301 262.003 66V67.0008H264.003Z" fill="white"/>
</svg>