<svg width="264" height="264" viewBox="0 0 264 264" fill="none" xmlns="http://www.w3.org/2000/svg">
    <path d="M119.454 156.7C119.454 149.521 125.275 143.7 132.454 143.7C139.634 143.7 145.454 149.521 145.454 156.7" stroke="white" stroke-width="2"/>
    <path d="M99.5099 124.964C97.6518 131.899 90.5236 136.014 83.5888 134.156C76.6539 132.298 72.5385 125.17 74.3967 118.235C80.675 119.917 88.6356 115.321 90.3179 109.043C97.2527 110.901 101.368 118.029 99.5099 124.964Z" stroke="white" stroke-width="2"/>
    <path d="M165.397 124.964C167.255 131.899 174.384 136.014 181.318 134.156C188.253 132.298 192.369 125.17 190.511 118.235C184.232 119.917 176.272 115.321 174.589 109.043C167.655 110.901 163.539 118.029 165.397 124.964Z" stroke="white" stroke-width="2"/>
    <path fill-rule="evenodd" clip-rule="evenodd" d="M66 1.06617e-07H67.4536V2H66C35.8301 2 20.7452 2 11.3726 11.3726C2 20.7452 2 35.8301 2 66V67.0001H1.06617e-07V66V65.8407C-1.49138e-05 50.8905 -2.63578e-05 39.4677 1.18941 30.6208C2.3908 21.685 4.83854 15.0782 9.95837 9.95837C15.0782 4.83854 21.685 2.3908 30.6208 1.18941C39.4677 -2.63578e-05 50.8905 -1.49138e-05 65.8407 1.06617e-07H66ZM1.06617e-07 197V198V198.159C-1.49138e-05 213.109 -2.63578e-05 224.532 1.18941 233.379C2.3908 242.315 4.83854 248.922 9.95837 254.042C15.0782 259.161 21.685 261.609 30.6208 262.81C39.4675 264 50.89 264 65.8397 264H65.8409H66H67.4536V262H66C35.8301 262 20.7452 262 11.3726 252.627C2 243.255 2 228.17 2 198V197H1.06617e-07ZM262 197V198C262 228.17 262 243.255 252.627 252.627C243.255 262 228.17 262 198 262H197.454V264H198H198.159H198.16C213.11 264 224.532 264 233.379 262.81C242.315 261.609 248.922 259.161 254.042 254.042C259.161 248.922 261.609 242.315 262.81 233.379C264 224.532 264 213.11 264 198.16V198.159V198V197H262ZM264 67.0001V66V65.8409V65.8398C264 50.89 264 39.4675 262.81 30.6208C261.609 21.685 259.161 15.0782 254.042 9.95837C248.922 4.83854 242.315 2.3908 233.379 1.18941C224.532 -2.63578e-05 213.109 -1.49138e-05 198.159 1.06617e-07H198H197.454V2H198C228.17 2 243.255 2 252.627 11.3726C262 20.7452 262 35.8301 262 66V67.0001H264Z" fill="white"/>
</svg>