<svg width="360" height="160" viewBox="0 0 360 101" fill="none" xmlns="http://www.w3.org/2000/svg">
    <path d="M21.3408 53.6841C16.146 52.6979 12.9168 51.9213 12.9168 49.4577C12.9168 47.6262 14.9544 46.781 16.92 46.781C18.9576 46.781 21.204 47.7671 21.2724 50.4438H33.2784C33.21 42.9772 26.1864 39.0326 16.6392 39.0326C7.51317 39.0326 0.77397 42.9772 0.77397 49.7394C0.77397 56.7834 7.65357 59.3915 13.41 60.728C19.5192 62.1368 21.6252 62.7726 21.6252 64.9544C21.6252 66.5727 19.6596 67.7034 17.2728 67.7034C15.0264 67.7034 12.4992 66.7895 12.4272 64.1814H-3.05176e-05C0.0719695 71.8611 7.37277 75.9466 17.7624 75.9466C27.6624 75.9466 34.3296 71.5793 34.3296 64.3223C34.3296 57.56 27.5184 54.8833 21.3408 53.6841Z" fill="white"/>
    <path d="M80.9424 39.0326C77.22 39.0326 72.9396 40.1596 69.7788 43.9634C67.32 40.9327 63.6696 39.0326 59.1768 39.0326C55.5948 39.0326 51.876 40.864 49.698 44.1765H49.5576L48.8556 40.0187H38.6064V74.9568H50.2596V55.9381C50.2596 52.4161 52.8588 49.5263 56.016 49.5263C59.2452 49.5263 61.7724 52.3439 61.7724 55.8659V74.9568H73.4256V55.9381C73.4256 52.4161 76.0932 49.5263 79.182 49.5263C82.4112 49.5263 84.9384 52.3439 84.9384 55.8659V74.9568H96.6636V55.3024C96.6708 46.1452 90.6336 39.0326 80.9424 39.0326Z" fill="white"/>
    <path d="M129.596 44.3138H129.456C127.631 41.0049 122.717 39.0326 118.433 39.0326C109.937 39.0326 100.602 46.2897 100.602 57.4878C100.602 68.6173 109.868 75.8744 118.433 75.8744C122.436 75.8744 127.559 74.2561 129.456 70.6618H129.596L130.086 74.9604H140.407V40.0187H130.086L129.596 44.3138ZM120.47 65.6588C115.978 65.6588 112.327 61.9959 112.327 57.4878C112.327 52.9797 115.978 49.3168 120.47 49.3168C124.963 49.3168 128.614 52.9797 128.614 57.4878C128.614 61.9959 124.963 65.6588 120.47 65.6588Z" fill="white"/>
    <path d="M155.851 46.781H155.711L155.009 40.0188H144.76V74.9569H156.413V60.3741C156.413 54.0345 159.995 49.8081 167.436 49.8081V39.3831C162.943 39.4553 158.098 41.4276 155.851 46.781Z" fill="white"/>
    <path d="M188.143 31.4252H176.49V40.0188H170.734V49.2482H176.49V61.5047C176.49 69.748 182.668 75.9467 192.006 75.9467C195.167 75.9467 197.694 75.3145 198.886 74.5379V65.1676C196.358 65.9442 195.095 66.226 193.9 66.226C190.318 66.226 188.143 64.0406 188.143 60.4499V49.2482H198.886V40.0188H188.143V31.4252Z" fill="white"/>
    <path d="M225.281 32.8339C226.544 32.8339 227.808 33.1157 229.493 33.8923L230.969 24.6629C229.072 23.8863 226.616 23.3228 223.387 23.3228C213.84 23.3228 207.45 29.3806 207.45 37.5516V40.0188H202.324V49.3168H207.45V74.9569H219.175V49.3168H229.846V40.0188H219.175V38.61C219.172 35.0157 221.49 32.8339 225.281 32.8339Z" fill="white"/>
    <path d="M262.206 44.3138H262.066C260.24 41.0049 255.326 39.0326 251.042 39.0326C242.546 39.0326 233.212 46.2897 233.212 57.4878C233.212 68.6173 242.478 75.8744 251.042 75.8744C255.046 75.8744 260.168 74.2561 262.066 70.6618H262.206L262.696 74.9604H273.017V40.0187H262.696L262.206 44.3138ZM253.08 65.6588C248.587 65.6588 244.937 61.9959 244.937 57.4878C244.937 52.9797 248.587 49.3168 253.08 49.3168C257.573 49.3168 261.223 52.9797 261.223 57.4878C261.223 61.9959 257.573 65.6588 253.08 65.6588Z" fill="white"/>
    <path d="M316.264 60.8689H304.398C303.134 63.7551 300.535 65.5902 297.097 65.5902C292.604 65.5902 289.022 61.8551 289.022 57.4878C289.022 53.0483 292.604 49.2445 297.097 49.2445C300.539 49.2445 303.347 51.2169 304.398 53.9658H316.264C315.068 45.7948 307.138 39.0326 297.31 39.0326C286.358 39.0326 277.301 47.3445 277.301 57.4878C277.301 67.6311 286.358 75.8744 297.31 75.8744C306.925 75.8744 315.14 69.3939 316.264 60.8689Z" fill="white"/>
    <path d="M340.765 66.7859C336.413 66.7859 333.324 64.6005 332.201 60.6558H360C360 48.5402 352.487 39.0291 340.484 39.0291C329.252 39.0291 320.688 47.3409 320.688 57.6251C320.688 68.1911 329.814 75.9395 340.625 75.9395C349.121 75.9395 356.422 71.1496 358.736 65.0195L347.926 63.3976C346.73 65.7998 343.714 66.7859 340.765 66.7859ZM340.484 48.0489C344.207 48.0489 347.224 49.5986 348.419 53.7564H332.201C333.324 50.0935 336.2 48.0489 340.484 48.0489Z" fill="white"/>
    <path class="mouth" d="M319.694 89.6914C316.274 89.6914 313.384 87.5963 313.384 85.1146H302.584C302.584 93.6143 310.259 100.528 319.694 100.528C329.13 100.528 336.805 93.6143 336.805 85.1146H326.005C326.005 87.5963 323.114 89.6914 319.694 89.6914Z" fill="white"/>
    <path class="hair" d="M291.816 33.3071C295.787 30.2222 310.19 20.3282 328.856 22.6328C336.251 23.5467 343.487 26.2885 349.79 30.569L355.846 21.5961C348.134 16.3583 339.26 12.9988 330.178 11.879C327.974 11.6081 325.825 11.4744 323.734 11.4528C323.759 11.4492 323.78 11.4419 323.806 11.4383C331.002 10.239 338.645 10.8315 345.906 13.1469L349.178 2.81939C340.297 -0.012643 330.908 -0.727877 322.038 0.749551C300.316 4.36907 288.061 19.4504 283.799 25.7683L288.407 28.8965L291.816 33.3071Z" fill="white"/>
</svg>